<?xml version="1.0" encoding="UTF-8"?>
<!DOCTYPE svg PUBLIC "-//W3C//DTD SVG 1.1//EN" "http://www.w3.org/Graphics/SVG/1.1/DTD/svg11.dtd">
<svg xmlns="http://www.w3.org/2000/svg" version="1.1" width="138px" height="115px" style="shape-rendering:geometricPrecision; text-rendering:geometricPrecision; image-rendering:optimizeQuality; fill-rule:evenodd; clip-rule:evenodd" xmlns:xlink="http://www.w3.org/1999/xlink">
<g><path style="opacity:1" fill="#fabbca" d="M 66.5,20.5 C 70.2727,19.8224 73.106,21.1558 75,24.5C 76.5964,29.6361 78.7631,34.4694 81.5,39C 87.8147,40.0547 94.1481,41.0547 100.5,42C 103.29,44.2103 104.123,47.0437 103,50.5C 98.967,54.8679 94.6337,58.8679 90,62.5C 89.9675,68.8746 91.1342,75.0412 93.5,81C 92.5164,84.5117 90.1831,86.6783 86.5,87.5C 80.7577,83.9622 74.7577,80.9622 68.5,78.5C 63.0927,81.039 57.7593,83.8723 52.5,87C 48.1492,87.3227 45.4825,85.3227 44.5,81C 46.0847,75.1755 47.2514,69.3421 48,63.5C 44.0191,59.1885 39.6858,55.1885 35,51.5C 33.1499,48.0247 33.6499,44.858 36.5,42C 43.1984,41.1095 49.865,40.1095 56.5,39C 58.9962,33.5173 61.4962,28.0173 64,22.5C 64.9947,21.9341 65.828,21.2674 66.5,20.5 Z"/></g>
</svg>
